<?xml version="1.0" standalone="no"?>
<!DOCTYPE svg PUBLIC "-//W3C//DTD SVG 20010904//EN"
 "http://www.w3.org/TR/2001/REC-SVG-20010904/DTD/svg10.dtd">
<svg version="1.0" xmlns="http://www.w3.org/2000/svg"
 width="1324.000000pt" height="855.000000pt" viewBox="0 0 1324.000000 855.000000"
 preserveAspectRatio="xMidYMid meet">

<g transform="translate(0.000000,855.000000) scale(0.100000,-0.100000)"
fill="#000000" stroke="none">
<path d="M6435 6964 c-22 -2 -89 -9 -149 -14 -553 -54 -1127 -277 -1576 -612
-533 -398 -942 -958 -1140 -1563 l-23 -69 -38 82 c-76 166 -196 306 -350 409
-84 57 -208 123 -231 123 -8 0 -18 4 -23 8 -25 22 -202 55 -388 73 -241 24
-564 -20 -867 -116 -255 -81 -577 -234 -771 -365 -32 -22 -61 -40 -64 -40 -14
0 -115 -83 -174 -143 -40 -41 -61 -70 -57 -79 3 -7 125 -209 270 -448 256
-422 264 -435 292 -432 16 2 33 7 39 11 22 17 125 53 137 48 7 -2 19 -22 27
-43 8 -22 26 -66 41 -99 15 -33 44 -98 65 -145 21 -47 48 -109 61 -138 13 -29
24 -54 24 -57 0 -2 13 -32 29 -67 16 -35 50 -112 76 -173 26 -60 55 -128 65
-150 10 -22 46 -103 80 -180 34 -77 70 -158 80 -180 9 -22 34 -78 55 -125 21
-47 50 -113 66 -148 16 -35 29 -65 29 -67 0 -4 23 -57 81 -183 16 -35 29 -65
29 -67 0 -3 12 -30 26 -62 27 -60 39 -74 58 -68 125 40 475 151 516 165 30 10
106 35 168 55 90 28 134 50 213 102 54 36 99 71 99 77 0 6 -5 29 -11 51 -6 22
-14 56 -19 75 -4 19 -16 62 -25 95 -9 33 -34 128 -55 210 -22 83 -42 160 -46
173 -11 37 3 26 59 -50 123 -166 262 -258 460 -307 l67 -17 55 -118 c412 -896
1229 -1565 2188 -1791 482 -113 1002 -113 1484 0 950 224 1759 881 2177 1767
64 134 145 350 177 466 l23 84 95 -6 c150 -10 202 -10 252 -2 l47 8 6 -99 c3
-54 9 -155 12 -225 5 -99 10 -128 20 -128 44 0 735 123 764 136 19 8 52 27 73
41 32 22 37 31 37 65 0 22 4 81 10 131 5 51 16 169 25 262 9 94 20 211 25 262
6 50 10 125 10 166 0 40 3 77 6 80 7 7 44 -35 44 -49 0 -8 69 -191 145 -384
32 -81 209 -541 263 -683 14 -37 28 -70 31 -72 4 -2 26 6 51 17 25 11 65 29
90 40 106 47 101 41 120 128 7 30 23 98 37 150 13 52 28 111 33 130 5 19 23
91 41 160 17 69 36 143 41 165 5 22 13 56 18 75 5 19 13 53 18 75 5 22 23 92
39 155 17 63 34 129 37 145 15 66 24 105 53 215 17 63 33 126 36 140 3 14 57
232 121 485 64 253 115 466 114 473 -2 8 -61 36 -133 63 -71 28 -217 84 -323
124 -106 41 -194 75 -196 75 -4 0 -21 -130 -35 -275 -52 -507 -63 -595 -76
-598 -5 -1 -94 250 -196 558 -103 308 -192 565 -197 571 -8 9 -46 2 -144 -23
-73 -19 -151 -39 -173 -45 -62 -14 -102 -24 -210 -53 -55 -15 -116 -31 -135
-35 -116 -27 -178 -49 -287 -101 l-122 -59 -3 -137 -3 -137 -145 3 c-143 2
-225 -8 -410 -51 -8 -2 -24 22 -43 67 -103 248 -191 414 -321 609 -255 382
-616 729 -1003 963 -412 249 -844 396 -1328 453 -94 11 -471 21 -540 14z m941
-1120 c93 -126 113 -158 103 -170 -15 -18 -646 -334 -668 -334 -17 0 -51 47
-51 70 0 11 364 454 423 515 16 17 36 40 44 53 9 12 19 22 24 22 5 0 61 -70
125 -156z m-2272 -626 c3 -29 10 -143 16 -253 15 -277 21 -355 30 -355 3 0 82
107 175 238 199 279 305 422 314 422 12 0 471 -441 471 -452 0 -14 -106 -131
-345 -383 -294 -310 -308 -326 -299 -334 5 -4 63 -29 129 -55 66 -26 129 -51
140 -56 11 -5 92 -37 180 -72 l160 -64 48 -70 c147 -213 345 -338 622 -392
l90 -18 3 -219 c1 -120 -1 -222 -6 -227 -4 -4 -363 170 -797 387 -435 217
-796 395 -802 395 -10 0 -13 -89 -13 -413 l0 -413 -87 -17 c-49 -9 -126 -21
-173 -27 -47 -6 -99 -13 -117 -16 -39 -6 -53 15 -53 77 0 23 -5 92 -12 153
l-11 111 36 75 c164 345 134 683 -83 947 -42 50 -42 52 -70 403 -15 178 -31
333 -36 341 -2 4 -40 -3 -83 -16 -56 -16 -83 -19 -90 -12 -16 16 -14 162 2
175 7 6 31 15 52 21 102 26 558 160 564 167 2 2 12 4 22 4 14 0 19 -11 23 -52z
m6143 40 c8 -13 123 -280 172 -403 16 -38 40 -95 54 -125 13 -30 62 -143 107
-250 45 -107 91 -214 101 -237 11 -24 25 -55 31 -70 l11 -28 12 45 c7 25 18
72 25 105 6 33 16 78 20 100 5 22 21 94 35 160 15 66 31 140 36 165 6 25 23
105 39 179 16 74 33 138 38 143 10 10 47 -4 242 -89 25 -11 71 -31 104 -44 32
-13 61 -29 63 -36 3 -8 -14 -82 -37 -166 -24 -83 -46 -165 -51 -182 -7 -29
-34 -125 -65 -235 -9 -30 -24 -86 -34 -125 -10 -38 -32 -119 -49 -180 -17 -60
-35 -126 -41 -145 -5 -19 -21 -75 -35 -125 -42 -149 -43 -154 -90 -325 -24
-91 -49 -178 -54 -195 -5 -16 -21 -77 -37 -135 -24 -94 -46 -142 -57 -129 -2
2 -40 85 -85 184 -44 99 -98 220 -121 268 -23 49 -41 90 -41 92 0 2 -20 46
-45 99 -25 53 -45 98 -45 101 0 2 -22 51 -50 110 -27 59 -50 108 -50 110 0 2
-16 38 -35 79 -19 42 -35 78 -35 80 0 2 -18 42 -39 88 -43 91 -88 190 -116
256 -10 23 -22 42 -26 42 -4 0 -10 -37 -13 -82 -4 -46 -11 -134 -16 -195 -6
-62 -14 -164 -20 -225 -5 -62 -12 -155 -16 -205 -7 -106 -11 -108 -73 -30 -20
25 -82 102 -138 171 -57 69 -103 131 -103 139 0 7 50 55 110 107 61 52 124
107 140 121 17 14 30 30 30 36 0 12 -143 243 -187 303 -35 47 -107 113 -163
150 -25 16 -56 37 -69 46 l-24 17 6 165 c4 90 11 170 17 177 6 7 27 15 48 19
20 3 57 10 82 15 25 5 70 14 100 20 30 5 129 26 220 45 186 39 206 41 217 24z
m-8622 -83 c190 -31 277 -62 408 -149 208 -137 326 -340 326 -561 1 -233 -137
-512 -369 -746 -80 -81 -144 -133 -285 -232 -21 -15 -19 -26 59 -322 13 -49
49 -187 80 -305 30 -118 67 -259 81 -314 14 -54 25 -105 23 -113 -3 -12 -56
-35 -183 -77 -135 -45 -235 -76 -245 -76 -10 0 -30 39 -95 185 -7 17 -24 55
-38 85 -14 30 -35 78 -47 105 -13 28 -33 73 -45 100 -13 28 -32 70 -43 95 -44
99 -374 837 -387 865 -7 17 -24 55 -38 85 -38 83 -77 172 -92 205 -8 17 -41
91 -74 165 -33 74 -64 136 -70 138 -5 2 -55 -20 -111 -48 -55 -28 -105 -48
-110 -45 -5 3 -47 69 -93 148 -47 78 -117 196 -156 262 -39 66 -71 127 -71
135 0 18 69 61 226 141 262 134 561 232 829 273 123 19 407 19 520 1z m6240
-47 c61 -12 153 -57 209 -99 169 -130 248 -370 202 -611 -15 -77 -396 -1232
-422 -1277 -49 -87 -169 -198 -266 -247 -225 -114 -553 -101 -837 32 -77 36
-241 146 -241 161 0 9 162 239 174 245 7 4 32 0 57 -7 24 -8 105 -29 179 -47
220 -53 349 -42 505 43 39 21 80 48 91 61 53 58 164 318 151 351 -3 9 -40 13
-123 15 -127 3 -210 19 -284 57 -55 28 -149 100 -157 121 -3 9 6 27 21 43 14
15 26 31 26 37 0 5 -38 44 -85 87 -116 107 -119 113 -112 266 5 139 25 217 82
331 46 92 151 218 237 285 185 145 385 197 593 153z m-1580 -89 c88 -23 122
-37 208 -87 69 -40 187 -148 187 -171 0 -16 -48 -68 -439 -484 -108 -114 -197
-215 -199 -223 -3 -12 5 -14 50 -8 67 8 142 27 192 48 47 20 183 122 204 153
8 13 19 23 26 23 6 0 50 -35 98 -78 48 -42 123 -108 167 -147 44 -38 80 -75
80 -81 1 -17 -116 -125 -187 -173 -131 -88 -312 -164 -497 -209 -90 -21 -355
-23 -435 -3 -345 87 -561 352 -560 690 1 334 216 606 576 726 169 57 369 66
529 24z m2990 -358 c44 -12 123 -42 175 -68 80 -40 110 -62 186 -139 51 -50
95 -101 99 -113 5 -16 -2 -28 -31 -53 -21 -18 -47 -42 -58 -54 -12 -11 -104
-90 -206 -175 -393 -329 -430 -361 -425 -370 8 -12 164 -2 229 15 74 20 158
66 240 133 16 13 32 23 36 21 4 -2 59 -61 121 -132 172 -195 179 -203 179
-214 0 -5 -33 -34 -72 -64 -95 -72 -228 -139 -333 -168 -16 -5 -55 -16 -85
-24 -85 -25 -245 -46 -350 -46 -306 0 -596 154 -715 381 -60 114 -60 111 -5
267 54 154 60 170 88 232 42 93 83 240 98 353 6 42 12 52 48 76 52 36 173 97
228 116 43 14 157 40 213 49 65 10 262 -4 340 -23z m-6015 -405 c225 -47 376
-184 449 -405 29 -88 29 -260 1 -365 -100 -373 -451 -657 -812 -656 -278 1
-512 183 -583 455 -23 87 -21 232 4 329 95 364 443 649 801 655 41 0 104 -5
140 -13z m3683 -605 c86 -68 165 -115 212 -128 82 -24 131 -33 184 -35 30 -2
56 -8 58 -13 5 -15 -93 -72 -152 -89 -84 -24 -147 -29 -190 -14 -58 20 -315
195 -315 214 0 17 105 114 122 114 10 0 46 -22 81 -49z m-433 -220 c0 -5 -32
-50 -70 -100 -39 -51 -79 -109 -89 -129 -11 -20 -31 -48 -46 -62 -63 -58 -110
-155 -94 -197 30 -82 309 -289 462 -343 142 -50 409 -85 577 -77 121 6 167 16
237 48 24 10 45 19 48 19 20 0 131 89 188 151 38 41 101 108 142 149 64 66 79
89 123 190 28 64 56 137 62 163 7 26 16 47 20 47 4 0 56 -50 116 -110 60 -61
120 -117 134 -124 14 -7 45 -24 70 -38 25 -14 69 -33 97 -42 29 -10 55 -21 58
-26 7 -12 -78 -272 -131 -397 -99 -238 -256 -501 -424 -713 -106 -135 -345
-373 -480 -480 -1109 -880 -2659 -880 -3770 0 -133 105 -372 344 -480 480
-141 177 -320 467 -384 622 l-16 37 43 11 c151 36 296 102 405 185 40 30 77
55 82 55 14 0 19 -30 28 -158 5 -62 13 -117 18 -122 5 -5 28 -5 54 0 25 4 83
13 130 19 47 7 112 16 145 21 33 5 103 16 155 24 52 8 133 19 180 26 69 9 105
21 190 63 l105 52 3 248 c2 206 5 247 17 247 7 0 123 -54 256 -121 758 -377
1151 -569 1170 -569 11 0 58 21 105 47 l84 47 0 325 c0 179 4 331 8 337 4 7
34 17 67 24 121 25 266 88 333 144 42 34 72 46 72 27z m3486 -138 c-13 -198
-45 -535 -51 -542 -2 -1 -41 -9 -87 -17 -155 -25 -213 -35 -271 -46 -49 -9
-60 -9 -68 3 -14 22 -11 370 4 398 7 15 88 71 202 142 105 65 203 127 220 138
54 38 58 32 51 -76z"/>
<path d="M2475 4541 c-86 -29 -110 -45 -107 -66 4 -22 66 -232 107 -365 15
-47 35 -112 45 -145 55 -181 75 -235 85 -235 22 0 171 118 231 182 106 114
147 238 126 378 -18 123 -86 204 -207 249 -71 27 -206 28 -280 2z m131 -166
c-3 -10 1 -18 12 -21 95 -31 141 -97 142 -202 0 -20 4 -31 10 -27 6 4 8 11 5
16 -4 5 -1 9 5 9 8 0 9 -11 5 -32 -8 -37 -75 -123 -95 -123 -8 0 -25 38 -42
95 -16 52 -38 124 -49 159 -21 65 -19 141 3 141 6 0 7 -7 4 -15z"/>
<path d="M8489 4726 c-67 -27 -96 -48 -145 -107 -60 -71 -77 -120 -72 -204 6
-86 35 -152 95 -212 163 -164 464 -122 566 80 46 91 52 190 17 285 -16 42 -40
43 -40 1 0 -65 -70 -155 -139 -178 -51 -17 -131 -13 -176 8 -78 36 -133 122
-120 189 8 41 57 117 85 132 11 6 20 15 20 20 0 16 -31 11 -91 -14z"/>
<path d="M6880 4746 c-75 -16 -136 -48 -191 -98 -91 -85 -123 -163 -118 -289
3 -71 9 -95 37 -151 28 -58 98 -138 120 -138 4 0 63 64 132 142 69 79 178 202
243 275 64 72 117 138 117 146 0 8 -24 31 -53 51 -87 60 -193 83 -287 62z"/>
<path d="M9897 4400 c-101 -18 -218 -97 -266 -181 -36 -64 -56 -162 -47 -237
10 -93 83 -222 124 -222 15 0 180 143 465 402 48 44 87 85 87 92 0 16 -66 77
-110 103 -69 41 -169 57 -253 43z m76 -165 c20 -4 44 -2 56 5 12 6 26 8 32 5
11 -7 -26 -46 -145 -155 -80 -74 -79 -74 -91 57 -7 81 -7 82 16 87 44 10 74
13 86 10 6 -1 27 -6 46 -9z"/>
<path d="M4005 4111 c-95 -23 -207 -107 -246 -183 -26 -52 -27 -189 0 -250 46
-107 148 -185 267 -207 215 -37 407 115 409 324 0 67 -18 135 -36 135 -5 0 -9
-14 -9 -30 0 -121 -172 -207 -302 -151 -88 38 -132 105 -126 191 4 62 32 107
89 143 51 33 29 46 -46 28z"/>
<path d="M4955 2263 c-11 -3 -23 -8 -28 -12 -4 -4 4 -63 18 -132 37 -186 34
-177 49 -157 8 11 17 14 27 7 22 -14 37 -11 59 11 19 19 19 19 48 -9 24 -25
34 -28 63 -22 26 5 35 12 37 31 3 21 2 22 -11 11 -23 -18 -62 -10 -62 13 0 14
11 22 40 31 43 12 49 33 18 68 -31 34 -113 11 -113 -31 0 -7 -9 -3 -20 8 -22
22 -33 24 -59 10 -16 -8 -19 -4 -25 28 -3 20 -6 63 -6 95 0 31 -3 56 -7 56 -5
-1 -17 -3 -28 -6z m230 -193 c0 -8 -10 -16 -22 -18 -22 -3 -32 16 -16 32 12
11 38 2 38 -14z m-137 -45 c-2 -14 -7 -26 -13 -26 -5 0 -11 12 -13 26 -2 18 1
25 13 25 12 0 15 -7 13 -25z"/>
<path d="M6165 2210 c-3 -6 -3 -30 1 -55 6 -41 4 -45 -19 -54 -13 -5 -27 -19
-30 -31 -5 -19 -2 -20 28 -14 l32 6 8 -77 c6 -63 10 -76 23 -73 15 3 17 16 14
85 -3 75 -2 82 17 88 13 4 21 15 21 29 0 19 -4 22 -25 18 -24 -4 -25 -2 -25
42 0 39 -3 46 -19 46 -11 0 -23 -5 -26 -10z"/>
<path d="M7575 2210 c-3 -6 -3 -30 1 -55 6 -41 4 -45 -19 -54 -13 -5 -27 -19
-30 -31 -5 -19 -2 -20 28 -14 l32 6 8 -77 c6 -63 10 -76 23 -73 15 3 17 16 14
85 -3 75 -2 82 17 88 13 4 21 15 21 29 0 19 -4 22 -25 18 -24 -4 -25 -2 -25
42 0 39 -3 46 -19 46 -11 0 -23 -5 -26 -10z"/>
<path d="M6291 2201 c-11 -7 -12 -26 -7 -87 13 -157 17 -174 36 -174 14 0 18
11 22 51 6 62 21 80 45 56 15 -15 16 -22 5 -63 -14 -50 -11 -60 12 -51 9 4 19
25 22 47 l7 41 18 -30 c23 -37 46 -49 84 -42 22 5 31 13 33 31 3 21 2 22 -11
11 -23 -18 -62 -10 -62 13 0 14 11 22 40 31 31 9 39 15 37 31 -10 55 -85 74
-119 30 -19 -23 -20 -23 -31 -5 -13 21 -43 25 -71 9 -16 -8 -20 -5 -25 22 -3
17 -6 43 -6 59 0 30 -6 34 -29 20z m234 -131 c0 -8 -10 -16 -22 -18 -22 -3
-32 16 -16 32 12 11 38 2 38 -14z"/>
<path d="M8541 2201 c-13 -8 -11 -103 5 -214 5 -31 3 -36 -10 -31 -9 3 -16 14
-16 23 0 9 -7 29 -15 45 -8 15 -15 41 -15 56 0 32 -40 70 -72 70 -31 0 -68
-45 -68 -83 0 -66 57 -106 111 -77 15 8 19 7 19 -4 0 -9 -9 -20 -20 -26 -64
-34 -39 -120 36 -120 46 0 78 32 70 71 -4 21 -2 29 8 29 9 0 15 17 18 51 6 62
21 80 45 56 15 -15 16 -22 5 -63 -7 -26 -10 -49 -8 -52 15 -14 36 13 46 61 18
88 -11 132 -70 110 -26 -10 -28 -9 -34 19 -3 17 -6 43 -6 59 0 30 -6 34 -29
20z m-100 -125 c12 -25 -2 -66 -21 -66 -16 0 -32 41 -26 66 8 31 33 31 47 0z
m77 -148 c28 -28 -3 -83 -33 -58 -8 7 -15 20 -15 29 0 17 18 41 30 41 3 0 11
-5 18 -12z"/>
<path d="M5420 2125 c0 -10 10 -15 34 -15 22 0 36 -6 40 -16 9 -23 8 -24 -23
-18 -21 5 -34 1 -50 -15 -47 -47 -10 -113 62 -111 23 1 54 -2 70 -5 21 -6 27
-4 27 9 0 9 -4 16 -9 16 -25 0 -39 30 -31 66 9 40 5 60 -18 87 -20 22 -102 24
-102 2z m74 -84 c10 -16 -5 -41 -24 -41 -20 0 -30 17 -22 38 5 14 38 16 46 3z"/>
<path d="M5680 2138 c-1 -2 -2 -27 -4 -55 -6 -92 -46 -110 -46 -22 0 47 -2 50
-22 47 -18 -2 -24 -10 -26 -40 -2 -20 4 -52 12 -72 12 -30 20 -36 44 -36 48 0
75 39 80 115 4 61 3 65 -17 65 -11 0 -21 -1 -21 -2z"/>
<path d="M6647 2123 c-11 -11 -17 -13 -17 -5 0 16 -12 15 -34 -1 -17 -12 -17
-19 -6 -90 10 -63 16 -77 31 -77 25 0 27 8 19 68 -7 54 -7 54 27 70 19 9 33
23 33 34 0 23 -30 24 -53 1z"/>
<path d="M6960 2125 c0 -10 10 -15 34 -15 22 0 36 -6 40 -16 9 -23 8 -24 -23
-18 -21 5 -34 1 -50 -15 -46 -46 -10 -112 62 -112 23 0 62 0 86 -1 24 0 47 4
51 9 4 4 4 32 1 61 -8 54 -8 54 26 70 19 9 33 23 33 34 0 22 -32 24 -50 3 -10
-12 -15 -13 -20 -4 -6 8 -13 8 -30 -1 -20 -10 -21 -17 -15 -58 3 -26 9 -57 12
-69 6 -26 -9 -30 -30 -8 -11 11 -13 24 -7 51 9 40 5 60 -18 87 -20 22 -102 24
-102 2z m74 -84 c10 -16 -5 -41 -24 -41 -20 0 -30 17 -22 38 5 14 38 16 46 3z"/>
<path d="M8300 2138 c-1 -2 -2 -27 -4 -55 -6 -92 -46 -110 -46 -22 0 47 -2 50
-22 47 -18 -2 -24 -10 -26 -40 -2 -20 4 -52 12 -72 12 -30 20 -36 44 -36 48 0
75 39 80 115 4 61 3 65 -17 65 -11 0 -21 -1 -21 -2z"/>
<path d="M5324 2120 c-11 -4 -33 -22 -47 -40 -34 -40 -38 -104 -8 -120 49 -26
147 4 120 36 -10 13 -15 12 -31 -3 -14 -13 -23 -15 -35 -7 -44 28 -42 64 7 92
16 9 30 25 30 35 0 19 -5 20 -36 7z"/>
<path d="M7465 2118 c-2 -7 -6 -35 -7 -62 l-3 -48 -37 53 -38 54 0 -56 c0 -31
3 -77 6 -101 5 -38 9 -45 25 -41 16 5 18 12 13 47 l-5 41 24 -39 25 -38 12 58
c6 33 16 75 21 94 5 19 9 38 9 43 0 12 -40 8 -45 -5z"/>
<path d="M8005 2118 c-2 -7 -6 -35 -7 -62 l-3 -48 -37 53 -38 54 0 -56 c0 -31
3 -77 6 -101 5 -38 9 -45 25 -41 16 5 18 12 13 47 l-5 41 24 -39 25 -38 12 58
c6 33 16 75 21 94 5 19 9 38 9 43 0 12 -40 8 -45 -5z"/>
<path d="M8070 2110 c-49 -49 -6 -170 60 -170 77 0 81 144 5 178 -35 16 -42
15 -65 -8z m70 -64 c16 -20 9 -60 -12 -64 -20 -4 -43 41 -34 65 7 17 31 17 46
-1z"/>
<path d="M5927 2102 c-10 -11 -17 -36 -17 -61 0 -33 6 -49 28 -71 24 -24 34
-27 63 -21 26 5 35 12 37 31 3 21 2 22 -11 11 -23 -18 -62 -10 -62 13 0 14 11
22 40 31 31 9 39 15 37 31 -9 51 -81 74 -115 36z m68 -32 c0 -8 -10 -16 -22
-18 -22 -3 -32 16 -16 32 12 11 38 2 38 -14z"/>
<path d="M6727 2102 c-10 -11 -17 -36 -17 -61 0 -33 6 -49 28 -71 24 -24 34
-27 63 -21 26 5 35 12 37 31 3 21 2 22 -11 11 -23 -18 -62 -10 -62 13 0 14 11
22 40 31 31 9 39 15 37 31 -9 51 -81 74 -115 36z m68 -32 c0 -8 -10 -16 -22
-18 -22 -3 -32 16 -16 32 12 11 38 2 38 -14z"/>
<path d="M7247 2102 c-10 -11 -17 -36 -17 -61 0 -33 6 -49 28 -71 24 -24 34
-27 63 -21 26 5 35 12 37 31 3 21 2 22 -11 11 -23 -18 -62 -10 -62 13 0 14 11
22 40 31 31 9 39 15 37 31 -9 51 -81 74 -115 36z m68 -32 c0 -8 -10 -16 -22
-18 -22 -3 -32 16 -16 32 12 11 38 2 38 -14z"/>
<path d="M7787 2102 c-10 -11 -17 -36 -17 -61 0 -33 6 -49 28 -71 24 -24 34
-27 63 -21 26 5 35 12 37 31 3 21 2 22 -11 11 -23 -18 -62 -10 -62 13 0 14 11
22 40 31 31 9 39 15 37 31 -9 51 -81 74 -115 36z m68 -32 c0 -8 -10 -16 -22
-18 -22 -3 -32 16 -16 32 12 11 38 2 38 -14z"/>
<path d="M5783 2100 c-53 -21 -34 -92 28 -105 47 -11 35 -28 -15 -23 -34 4
-46 2 -50 -9 -9 -22 0 -30 38 -37 39 -8 103 14 112 38 9 24 -14 54 -51 66 -44
15 -45 30 -1 30 18 0 39 6 45 14 24 29 -53 47 -106 26z"/>
<path d="M4680 1971 c0 -24 23 -33 46 -17 22 16 10 36 -22 36 -17 0 -24 -6
-24 -19z"/>
<path d="M4770 1971 c0 -24 23 -33 46 -17 22 16 10 36 -22 36 -17 0 -24 -6
-24 -19z"/>
<path d="M4860 1971 c0 -24 23 -33 46 -17 22 16 10 36 -22 36 -17 0 -24 -6
-24 -19z"/>
<path d="M5270 1886 c0 -2 16 -88 35 -192 19 -103 35 -191 35 -194 0 -3 5 2
10 10 5 8 10 38 10 65 1 55 -3 56 50 -15 18 -24 19 -24 37 -7 17 18 17 20 -21
51 l-39 34 26 23 c25 21 37 59 19 59 -5 0 -21 -14 -38 -31 l-29 -30 -7 48 c-3
26 -7 78 -7 116 l-1 67 -40 0 c-22 0 -40 -2 -40 -4z"/>
<path d="M7678 1883 c-22 -5 -22 -10 -3 -153 23 -173 25 -180 40 -180 17 0 19
47 8 228 -4 72 -10 112 -17 111 -6 -1 -19 -3 -28 -6z"/>
<path d="M8281 1853 c0 -16 4 -52 8 -80 l7 -53 -36 0 c-44 0 -70 -24 -70 -64
0 -65 38 -92 105 -74 l45 12 0 51 1 50 20 -38 20 -38 -21 -67 c-18 -62 -19
-68 -3 -79 9 -7 18 -12 19 -10 5 5 94 288 94 298 0 26 -44 -20 -55 -57 -12
-39 -12 -39 -20 -11 -7 28 -28 36 -41 15 -13 -20 -23 22 -23 100 -1 70 -2 72
-26 72 -21 0 -25 -5 -24 -27z m-11 -177 c6 -8 10 -25 8 -38 -4 -32 -42 -32
-46 0 -7 46 14 66 38 38z"/>
<path d="M4921 1860 c-23 -10 -24 -13 -17 -87 3 -42 6 -114 6 -160 0 -81 1
-84 22 -81 18 2 24 13 33 53 10 48 12 50 49 56 47 8 96 56 96 94 0 35 -23 86
-49 109 -24 22 -104 31 -140 16z m127 -92 c30 -30 -1 -88 -46 -88 -22 0 -24 3
-18 31 3 17 6 40 6 50 0 22 39 26 58 7z"/>
<path d="M6495 1828 c-3 -7 -4 -33 -2 -58 2 -40 -1 -45 -20 -48 -18 -3 -23 2
-23 18 0 16 -5 21 -21 18 -17 -3 -21 -11 -23 -55 -5 -92 -46 -111 -46 -22 0
47 -2 50 -22 47 -18 -2 -24 -10 -26 -40 -2 -20 4 -52 12 -72 12 -30 20 -36 44
-36 28 0 72 35 72 57 0 18 29 43 50 43 15 0 19 -12 25 -76 6 -63 10 -75 23
-72 15 3 17 16 14 85 -3 75 -2 82 17 88 13 4 21 15 21 29 0 19 -4 22 -25 18
-24 -4 -25 -2 -25 42 0 40 -3 46 -20 46 -11 0 -23 -6 -25 -12z"/>
<path d="M6715 1830 c-3 -6 -3 -30 1 -55 6 -41 4 -45 -19 -54 -13 -5 -27 -19
-30 -31 -5 -19 -2 -20 28 -14 l32 6 8 -77 c6 -63 10 -76 23 -73 15 3 17 16 14
85 -3 75 -2 82 17 88 13 4 21 15 21 29 0 19 -4 22 -25 18 -24 -4 -25 -2 -25
42 0 39 -3 46 -19 46 -11 0 -23 -5 -26 -10z"/>
<path d="M6841 1821 c-11 -7 -12 -26 -7 -87 13 -157 17 -174 36 -174 14 0 18
11 22 51 6 62 21 80 45 56 15 -15 16 -22 5 -63 -14 -50 -11 -60 12 -51 9 4 19
25 22 47 l7 41 18 -30 c23 -37 46 -49 84 -42 22 5 31 13 33 31 3 21 2 22 -11
11 -23 -18 -62 -10 -62 13 0 14 11 22 40 31 31 9 39 15 37 31 -10 55 -85 74
-119 30 -19 -23 -20 -23 -31 -5 -13 21 -43 25 -71 9 -16 -8 -20 -5 -25 22 -3
17 -6 43 -6 59 0 30 -6 34 -29 20z m234 -131 c0 -8 -10 -16 -22 -18 -22 -3
-32 16 -16 32 12 11 38 2 38 -14z"/>
<path d="M5727 1709 l-28 -64 -28 48 c-32 55 -33 54 -46 -55 -7 -55 -6 -58 14
-58 16 0 21 6 21 27 l0 27 29 -28 29 -28 8 34 7 33 9 -27 c9 -25 35 -37 50
-23 4 4 -21 127 -34 167 -2 6 -16 -18 -31 -53z"/>
<path d="M7197 1743 c-11 -11 -17 -13 -17 -5 0 16 -12 15 -34 -1 -17 -12 -17
-19 -6 -90 10 -63 16 -77 31 -77 25 0 27 8 19 68 -7 54 -7 54 27 70 19 9 33
23 33 34 0 23 -30 24 -53 1z"/>
<path d="M7510 1745 c0 -10 10 -15 34 -15 22 0 36 -6 40 -16 9 -23 8 -24 -23
-18 -21 5 -34 1 -50 -15 -47 -47 -10 -113 62 -111 23 1 54 -2 70 -5 21 -6 27
-4 27 9 0 9 -4 16 -9 16 -25 0 -39 30 -31 66 9 40 5 60 -18 87 -20 22 -102 24
-102 2z m74 -84 c10 -16 -5 -41 -24 -41 -20 0 -30 17 -22 38 5 14 38 16 46 3z"/>
<path d="M7807 1743 c-11 -11 -17 -13 -17 -5 0 16 -12 15 -34 -1 -17 -12 -17
-19 -6 -90 10 -63 16 -77 31 -77 25 0 27 8 19 68 -7 54 -7 54 27 70 19 9 33
23 33 34 0 23 -30 24 -53 1z"/>
<path d="M8040 1745 c0 -10 10 -15 34 -15 22 0 36 -6 40 -16 9 -23 8 -24 -23
-18 -21 5 -34 1 -50 -15 -47 -47 -10 -113 62 -111 23 1 54 -2 70 -5 21 -6 27
-4 27 9 0 9 -4 16 -9 16 -25 0 -39 30 -31 66 9 40 5 60 -18 87 -20 22 -102 24
-102 2z m74 -84 c10 -16 -5 -41 -24 -41 -20 0 -30 17 -22 38 5 14 38 16 46 3z"/>
<path d="M5130 1730 c-49 -49 -6 -170 60 -170 77 0 81 144 5 178 -35 16 -42
15 -65 -8z m70 -64 c16 -20 9 -60 -12 -64 -20 -4 -43 41 -34 65 7 17 31 17 46
-1z"/>
<path d="M5820 1730 c-49 -49 -6 -170 60 -170 77 0 81 144 5 178 -35 16 -42
15 -65 -8z m70 -64 c16 -20 9 -60 -12 -64 -20 -4 -43 41 -34 65 7 17 31 17 46
-1z"/>
<path d="M6035 1738 c-2 -7 -6 -35 -7 -62 l-3 -48 -37 53 -38 54 0 -56 c0 -31
3 -77 6 -101 5 -38 9 -45 25 -41 16 5 18 12 13 47 l-5 41 24 -39 25 -38 12 58
c6 33 16 75 21 94 5 19 9 38 9 43 0 12 -40 8 -45 -5z"/>
<path d="M6180 1730 c-49 -49 -6 -170 60 -170 77 0 81 144 5 178 -35 16 -42
15 -65 -8z m70 -64 c16 -20 9 -60 -12 -64 -20 -4 -43 41 -34 65 7 17 31 17 46
-1z"/>
<path d="M5487 1722 c-10 -11 -17 -36 -17 -61 0 -33 6 -49 28 -71 24 -24 34
-27 63 -21 26 5 35 12 37 31 3 21 2 22 -11 11 -23 -18 -62 -10 -62 13 0 14 11
22 40 31 31 9 39 15 37 31 -9 51 -81 74 -115 36z m68 -32 c0 -8 -10 -16 -22
-18 -22 -3 -32 16 -16 32 12 11 38 2 38 -14z"/>
<path d="M7277 1722 c-10 -11 -17 -36 -17 -61 0 -33 6 -49 28 -71 24 -24 34
-27 63 -21 26 5 35 12 37 31 3 21 2 22 -11 11 -23 -18 -62 -10 -62 13 0 14 11
22 40 31 31 9 39 15 37 31 -9 51 -81 74 -115 36z m68 -32 c0 -8 -10 -16 -22
-18 -22 -3 -32 16 -16 32 12 11 38 2 38 -14z"/>
<path d="M7887 1722 c-10 -11 -17 -36 -17 -61 0 -33 6 -49 28 -71 24 -24 34
-27 63 -21 26 5 35 12 37 31 3 21 2 22 -11 11 -23 -18 -62 -10 -62 13 0 14 11
22 40 31 31 9 39 15 37 31 -9 51 -81 74 -115 36z m68 -32 c0 -8 -10 -16 -22
-18 -22 -3 -32 16 -16 32 12 11 38 2 38 -14z"/>
</g>
</svg>
